<svg width="24" height="25" viewBox="0 0 24 25" fill="none" xmlns="http://www.w3.org/2000/svg">
<path fill-rule="evenodd" clip-rule="evenodd" d="M13.0004 3.5C13.0004 2.94772 12.5526 2.5 12.0004 2.5C11.4481 2.5 11.0004 2.94772 11.0004 3.5V4.07087C7.60823 4.55593 5.00035 7.47223 5.00035 10.9989L5.00035 14.9993C5.00035 14.9993 5.00036 14.9991 5.00035 14.9993C5.00025 15.0012 4.99957 15.0146 4.99524 15.0409C4.99003 15.0724 4.98079 15.1152 4.96553 15.1703C4.93461 15.282 4.88539 15.4211 4.81662 15.5855C4.67876 15.9151 4.4844 16.2947 4.26944 16.6776C3.8653 17.3975 3.66158 18.2554 3.81452 19.0712C3.9758 19.9316 4.52959 20.6819 5.47541 21.042C6.32032 21.3637 7.44498 21.6579 8.93021 21.833C8.96555 21.8637 9.00734 21.8987 9.05534 21.9371C9.20563 22.0574 9.42035 22.2132 9.69171 22.3682C10.2303 22.676 11.0266 23 12.0004 23C12.9741 23 13.7704 22.676 14.309 22.3682C14.5804 22.2132 14.7951 22.0574 14.9454 21.9371C14.9934 21.8987 15.0352 21.8637 15.0705 21.833C16.5557 21.6579 17.6804 21.3637 18.5253 21.042C19.4711 20.6819 20.0249 19.9316 20.1862 19.0712C20.3391 18.2554 20.1354 17.3975 19.7313 16.6776C19.5163 16.2947 19.3219 15.9151 19.1841 15.5855C19.1153 15.4211 19.0661 15.282 19.0352 15.1703C19.0199 15.1152 19.0107 15.0724 19.0055 15.0409C19.0011 15.0146 19.0005 15.0015 19.0004 14.9996C19.0004 14.9994 19.0004 14.9996 19.0004 14.9996L19.0004 14.9911V10.9994C19.0004 7.4728 16.3925 4.55601 13.0004 4.07088V3.5ZM7.00035 10.9989C7.00035 8.23772 9.23869 6 12.0004 6C14.7619 6 17.0004 8.23809 17.0004 10.9994V15C17.0004 15.4629 17.1738 15.9623 17.3389 16.3571C17.5183 16.7861 17.7534 17.24 17.9873 17.6566C18.2146 18.0616 18.2689 18.4444 18.2204 18.7027C18.1803 18.9166 18.0735 19.074 17.8136 19.1729C16.7387 19.5822 14.9243 20 12.0004 20C9.07642 20 7.26196 19.5822 6.1871 19.1729C5.92724 19.074 5.82036 18.9166 5.78028 18.7027C5.73185 18.4444 5.78606 18.0616 6.01344 17.6566C6.24729 17.24 6.48238 16.7861 6.66177 16.3571C6.8269 15.9623 7.00035 15.4629 7.00035 15V10.9989Z" fill="#344054"/>
</svg>
