<svg width="25" height="25" viewBox="0 0 25 25" fill="none" xmlns="http://www.w3.org/2000/svg">
<path fill-rule="evenodd" clip-rule="evenodd" d="M8.77344 1.77734C9.32572 1.77734 9.77344 2.22506 9.77344 2.77734V3.77734H15.7734V2.77734C15.7734 2.22506 16.2212 1.77734 16.7734 1.77734C17.3257 1.77734 17.7734 2.22506 17.7734 2.77734V3.77734H18.7734C20.9826 3.77734 22.7734 5.5682 22.7734 7.77734V18.7773C22.7734 20.9865 20.9826 22.7773 18.7734 22.7773H6.77344C4.5643 22.7773 2.77344 20.9865 2.77344 18.7773V7.77734C2.77344 5.5682 4.5643 3.77734 6.77344 3.77734H7.77344V2.77734C7.77344 2.22506 8.22115 1.77734 8.77344 1.77734ZM15.7734 5.77734C15.7734 6.32963 16.2212 6.77734 16.7734 6.77734C17.3257 6.77734 17.7734 6.32963 17.7734 5.77734H18.7734C19.878 5.77734 20.7734 6.67277 20.7734 7.77734V8.27734H4.77344V7.77734C4.77344 6.67277 5.66887 5.77734 6.77344 5.77734H7.77344C7.77344 6.32963 8.22115 6.77734 8.77344 6.77734C9.32572 6.77734 9.77344 6.32963 9.77344 5.77734H15.7734ZM20.7734 10.2773H4.77344V18.7773C4.77344 19.8819 5.66887 20.7773 6.77344 20.7773H18.7734C19.878 20.7773 20.7734 19.8819 20.7734 18.7773V10.2773Z" fill="black"/>
</svg>
