<svg width="25" height="25" viewBox="0 0 25 25" fill="none" xmlns="http://www.w3.org/2000/svg">
<path d="M12.7734 9.27734C12.7734 8.72506 12.3257 8.27734 11.7734 8.27734C11.2212 8.27734 10.7734 8.72506 10.7734 9.27734V14.2773C10.7734 14.8296 11.2212 15.2773 11.7734 15.2773H14.7734C15.3257 15.2773 15.7734 14.8296 15.7734 14.2773C15.7734 13.7251 15.3257 13.2773 14.7734 13.2773H12.7734V9.27734Z" fill="black"/>
<path fill-rule="evenodd" clip-rule="evenodd" d="M12.7734 2.77734C7.25059 2.77734 2.77344 7.2545 2.77344 12.7773C2.77344 18.3002 7.25059 22.7773 12.7734 22.7773C18.2963 22.7773 22.7734 18.3002 22.7734 12.7773C22.7734 7.2545 18.2963 2.77734 12.7734 2.77734ZM4.77344 12.7773C4.77344 8.35907 8.35516 4.77734 12.7734 4.77734C17.1917 4.77734 20.7734 8.35907 20.7734 12.7773C20.7734 17.1956 17.1917 20.7773 12.7734 20.7773C8.35516 20.7773 4.77344 17.1956 4.77344 12.7773Z" fill="black"/>
</svg>
