<svg width="25" height="25" viewBox="0 0 25 25" fill="none" xmlns="http://www.w3.org/2000/svg">
<path fill-rule="evenodd" clip-rule="evenodd" d="M12.7734 2.77734C12.297 2.77734 11.8264 2.88254 11.3952 3.08542L5.07025 6.06188C3.66828 6.72164 2.77344 8.13171 2.77344 9.68116V16.7773C2.77344 17.7751 3.34967 18.6831 4.25246 19.108L11.3952 22.4693C11.8264 22.6721 12.297 22.7773 12.7734 22.7773C13.2499 22.7773 13.7205 22.6721 14.1516 22.4693L21.2944 19.108C22.1972 18.6831 22.7734 17.7751 22.7734 16.7773V9.68116C22.7734 8.13171 21.8786 6.72164 20.4766 6.06189L14.1516 3.08542C13.7205 2.88254 13.2499 2.77734 12.7734 2.77734ZM20.7734 15.1593L13.7734 11.6593V5.11783L19.625 7.87152C20.326 8.2014 20.7734 8.90644 20.7734 9.68116V15.1593ZM12.7734 13.3954L20.5077 17.2625C20.4871 17.2757 20.4654 17.2877 20.4428 17.2983L13.3 20.6596C13.1353 20.7371 12.9555 20.7773 12.7734 20.7773C12.5914 20.7773 12.4116 20.7371 12.2468 20.6596L5.10405 17.2983C5.08148 17.2877 5.05982 17.2757 5.03915 17.2625L12.7734 13.3954ZM11.7734 11.6593L4.77344 15.1593V9.68116C4.77344 8.90644 5.22086 8.2014 5.92184 7.87152L11.7734 5.11783V11.6593Z" fill="black"/>
</svg>
