<svg width="25" height="25" viewBox="0 0 25 25" fill="none" xmlns="http://www.w3.org/2000/svg">
<path fill-rule="evenodd" clip-rule="evenodd" d="M5.77344 2.27734C3.5643 2.27734 1.77344 4.0682 1.77344 6.27734V16.2773C1.77344 18.4865 3.5643 20.2773 5.77344 20.2773H19.7734C21.9826 20.2773 23.7734 18.4865 23.7734 16.2773V6.27734C23.7734 4.0682 21.9826 2.27734 19.7734 2.27734H5.77344ZM3.77344 6.27734C3.77344 5.17277 4.66887 4.27734 5.77344 4.27734H19.7734C20.878 4.27734 21.7734 5.17277 21.7734 6.27734V16.2773C21.7734 17.3819 20.878 18.2773 19.7734 18.2773H5.77344C4.66887 18.2773 3.77344 17.3819 3.77344 16.2773V6.27734Z" fill="black"/>
<path d="M2.77344 21.2773C2.22115 21.2773 1.77344 21.7251 1.77344 22.2773C1.77344 22.8296 2.22115 23.2773 2.77344 23.2773H22.7734C23.3257 23.2773 23.7734 22.8296 23.7734 22.2773C23.7734 21.7251 23.3257 21.2773 22.7734 21.2773H2.77344Z" fill="black"/>
</svg>
