<svg width="16" height="16" viewBox="0 0 16 16" fill="none" xmlns="http://www.w3.org/2000/svg">
<path d="M4.00001 5.66666C4.00001 5.29847 4.29849 4.99999 4.66668 4.99999H8.00001C8.3682 4.99999 8.66668 5.29847 8.66668 5.66666C8.66668 6.03485 8.3682 6.33332 8.00001 6.33332H4.66668C4.29849 6.33332 4.00001 6.03485 4.00001 5.66666Z" fill="black" fill-opacity="0.48"/>
<path d="M4.66668 7.66666C4.29849 7.66666 4.00001 7.96513 4.00001 8.33332C4.00001 8.70151 4.29849 8.99999 4.66668 8.99999H10.6667C11.0349 8.99999 11.3333 8.70151 11.3333 8.33332C11.3333 7.96513 11.0349 7.66666 10.6667 7.66666H4.66668Z" fill="black" fill-opacity="0.48"/>
<path fill-rule="evenodd" clip-rule="evenodd" d="M10.2667 13.3L11.2 12.6C11.4308 12.4269 11.7115 12.3333 12 12.3333C13.4728 12.3333 14.6667 11.1394 14.6667 9.66666V4.33332C14.6667 2.86056 13.4728 1.66666 12 1.66666L4.00001 1.66666C2.52725 1.66666 1.33334 2.86056 1.33334 4.33332L1.33334 9.66666C1.33334 11.1394 2.52725 12.3333 4.00001 12.3333H5.33334C5.62184 12.3333 5.90255 12.4269 6.13334 12.6L7.06668 13.3C8.01483 14.0111 9.31853 14.0111 10.2667 13.3ZM12 11C11.423 11 10.8616 11.1871 10.4 11.5333L9.46668 12.2333C8.9926 12.5889 8.34075 12.5889 7.86668 12.2333L6.93334 11.5333C6.47175 11.1871 5.91033 11 5.33334 11H4.00001C3.26363 11 2.66668 10.403 2.66668 9.66666V4.33332C2.66668 3.59694 3.26363 2.99999 4.00001 2.99999L12 2.99999C12.7364 2.99999 13.3333 3.59694 13.3333 4.33332V9.66666C13.3333 10.403 12.7364 11 12 11Z" fill="black" fill-opacity="0.48"/>
</svg>
