<svg width="25" height="25" viewBox="0 0 25 25" fill="none" xmlns="http://www.w3.org/2000/svg">
<path fill-rule="evenodd" clip-rule="evenodd" d="M12.2734 2.27734C9.51201 2.27734 7.27344 4.51592 7.27344 7.27734C7.27344 10.0388 9.51201 12.2773 12.2734 12.2773C15.0349 12.2773 17.2734 10.0388 17.2734 7.27734C17.2734 4.51592 15.0349 2.27734 12.2734 2.27734ZM9.27344 7.27734C9.27344 5.62049 10.6166 4.27734 12.2734 4.27734C13.9303 4.27734 15.2734 5.62049 15.2734 7.27734C15.2734 8.9342 13.9303 10.2773 12.2734 10.2773C10.6166 10.2773 9.27344 8.9342 9.27344 7.27734Z" fill="black"/>
<path fill-rule="evenodd" clip-rule="evenodd" d="M12.2734 23.2773C10.7329 23.2773 8.50326 22.9275 6.82887 22.1947C6.00687 21.835 5.17089 21.3201 4.68519 20.5747C4.42975 20.1828 4.26827 19.7211 4.27356 19.2056C4.27881 18.6948 4.44688 18.2054 4.72935 17.7501C6.09875 15.543 8.90023 13.2773 12.2734 13.2773C15.6466 13.2773 18.4481 15.543 19.8175 17.7501C20.1 18.2054 20.2681 18.6948 20.2733 19.2056C20.2786 19.7211 20.1171 20.1828 19.8617 20.5748C19.376 21.3201 18.54 21.835 17.718 22.1947C16.0436 22.9275 13.8139 23.2773 12.2734 23.2773ZM6.42883 18.8045C6.29716 19.0168 6.27421 19.1531 6.27346 19.2261C6.27276 19.2944 6.2903 19.3746 6.3608 19.4828C6.52698 19.7378 6.93051 20.056 7.63076 20.3625C9.00088 20.9622 10.9467 21.2773 12.2734 21.2773C13.6002 21.2773 15.546 20.9622 16.9161 20.3625C17.6164 20.056 18.0199 19.7378 18.1861 19.4828C18.2566 19.3746 18.2741 19.2944 18.2734 19.2261C18.2727 19.1531 18.2497 19.0168 18.118 18.8045C16.9959 16.9959 14.7578 15.2773 12.2734 15.2773C9.7891 15.2773 7.55098 16.9959 6.42883 18.8045Z" fill="black"/>
</svg>
