<svg width="21" height="21" viewBox="0 0 21 21" fill="none" xmlns="http://www.w3.org/2000/svg">
<path fill-rule="evenodd" clip-rule="evenodd" d="M10.0834 1.97266C5.7111 1.97266 2.16669 5.51707 2.16669 9.88932C2.16669 14.2616 5.7111 17.806 10.0834 17.806C11.9693 17.806 13.7012 17.1465 15.0611 16.0456L17.4108 18.3952C17.7362 18.7207 18.2638 18.7207 18.5893 18.3952C18.9147 18.0698 18.9147 17.5422 18.5893 17.2167L16.2396 14.8671C17.3405 13.5072 18 11.7753 18 9.88932C18 5.51707 14.4556 1.97266 10.0834 1.97266ZM3.83335 9.88932C3.83335 6.43754 6.63157 3.63932 10.0834 3.63932C13.5351 3.63932 16.3334 6.43754 16.3334 9.88932C16.3334 13.3411 13.5351 16.1393 10.0834 16.1393C6.63157 16.1393 3.83335 13.3411 3.83335 9.88932Z" fill="#667185"/>
</svg>
